<?xml version="1.0" encoding="UTF-8"?>
<svg version="1.1" xmlns="http://www.w3.org/2000/svg" width="256" height="256" viewBox="0 0 256 256">
<defs>
<style id="current-color-scheme" type="text/css">.ColorScheme-Text { color:#bebebe; }</style>
</defs>
<path class="ColorScheme-Text" fill="currentColor" d="M0 0 C10.12833827 8.66959233 20.0049148 19.77457402 22.6875 33.1875 C34.5675 33.1875 46.4475 33.1875 58.6875 33.1875 C58.6875 49.0275 58.6875 64.8675 58.6875 81.1875 C46.8075 81.1875 34.9275 81.1875 22.6875 81.1875 C21.6975 84.1575 20.7075 87.1275 19.6875 90.1875 C10.11370368 108.81423843 -5.17198764 119.80373495 -24.09765625 127.2890625 C-42.09695625 132.96189048 -63.46098941 130.02224392 -80 121.625 C-98.04400786 111.80618091 -110.14251001 95.12843786 -116.25 75.75 C-120.63164019 55.53968463 -117.44218046 34.43848961 -106.51025391 16.95117188 C-95.96144387 1.41823186 -79.43575827 -10.37181639 -60.99609375 -14.375 C-38.67891838 -17.02560832 -18.22297975 -13.94184695 0 0 Z M-64.8671875 44.08984375 C-69.14405886 50.29708677 -69.24669309 56.88380857 -68.3125 64.1875 C-65.84414607 71.30102392 -61.48405312 75.65061872 -54.890625 79.125 C-48.38585395 81.80575413 -42.98933932 81.74126656 -36.4453125 79.1875 C-30.33825488 76.32411767 -26.27676706 72.95954792 -23.1953125 66.84765625 C-21.06360848 60.42424723 -21.10492048 53.06543028 -23.8125 46.8125 C-27.32166228 40.91810641 -32.77300699 36.26290796 -39.3125 34.1875 C-50.74695097 32.83113754 -57.49067489 35.46103946 -64.8671875 44.08984375 Z " transform="translate(117.3125,62.8125)"/>
<path class="ColorScheme-Text" fill="currentColor" d="M0 0 C10.56 0 21.12 0 32 0 C32.12032643 17.00613516 32.12032643 17.00613516 32.14648438 24.421875 C32.16421395 29.42392883 32.18485979 34.42581353 32.22631836 39.42773438 C32.38108697 58.58939142 31.92864616 76.99839025 29 96 C20.42 96 11.84 96 3 96 C-0.05390428 76.1856919 -0.37159903 56.95565067 -0.20599365 36.97558594 C-0.16919155 32.04920612 -0.15601117 27.1227073 -0.13863373 22.19622803 C-0.11000907 14.79724788 -0.05235156 7.39902062 0 0 Z " transform="translate(192,96)"/>
<path class="ColorScheme-Text" fill="currentColor" d="M0 0 C10.56 0 21.12 0 32 0 C32 10.56 32 21.12 32 32 C21.44 32 10.88 32 0 32 C0 21.44 0 10.88 0 0 Z " transform="translate(192,208)"/>
<path class="ColorScheme-Text" fill="currentColor" d="M0 0 C5.28 0 10.56 0 16 0 C16 15.84 16 31.68 16 48 C10.72 48 5.44 48 0 48 C0 32.16 0 16.32 0 0 Z " transform="translate(240,96)"/>
</svg>
