<?xml version="1.0" encoding="UTF-8"?>
<svg version="1.1" xmlns="http://www.w3.org/2000/svg" width="256" height="256" viewBox="0 0 256 256">
<defs>
<style id="current-color-scheme" type="text/css">.ColorScheme-Text { color:#bebebe; }</style>
</defs>
<path class="ColorScheme-Text" fill="currentColor" d="M0 0 C8.34468007 4.97590182 13.53387008 11.86345977 16.109375 21.2578125 C17.10789012 32.35758522 16.45884702 41.9922991 9.359375 51.0703125 C3.70168013 57.1280464 -3.34488592 60.84888618 -11.625 61.59375 C-22.35447774 61.83515993 -31.19802606 60.58332943 -39.359375 52.9609375 C-46.75303791 44.73737365 -48.47252567 36.02335615 -48.203125 25.24609375 C-47.72879865 16.86039919 -44.11592977 9.8548755 -37.890625 4.2578125 C-27.15195714 -3.81766573 -12.32399863 -5.91386512 0 0 Z " transform="translate(223.890625,98.7421875)"/>
<path class="ColorScheme-Text" fill="currentColor" d="M0 0 C8.34468007 4.97590182 13.53387008 11.86345977 16.109375 21.2578125 C17.10789012 32.35758522 16.45884702 41.9922991 9.359375 51.0703125 C3.70168013 57.1280464 -3.34488592 60.84888618 -11.625 61.59375 C-22.35447774 61.83515993 -31.19802606 60.58332943 -39.359375 52.9609375 C-46.75303791 44.73737365 -48.47252567 36.02335615 -48.203125 25.24609375 C-47.72879865 16.86039919 -44.11592977 9.8548755 -37.890625 4.2578125 C-27.15195714 -3.81766573 -12.32399863 -5.91386512 0 0 Z " transform="translate(143.890625,98.7421875)"/>
<path class="ColorScheme-Text" fill="currentColor" d="M0 0 C8.34468007 4.97590182 13.53387008 11.86345977 16.109375 21.2578125 C17.10789012 32.35758522 16.45884702 41.9922991 9.359375 51.0703125 C3.70168013 57.1280464 -3.34488592 60.84888618 -11.625 61.59375 C-22.35447774 61.83515993 -31.19802606 60.58332943 -39.359375 52.9609375 C-46.75303791 44.73737365 -48.47252567 36.02335615 -48.203125 25.24609375 C-47.72879865 16.86039919 -44.11592977 9.8548755 -37.890625 4.2578125 C-27.15195714 -3.81766573 -12.32399863 -5.91386512 0 0 Z " transform="translate(63.890625,98.7421875)"/>
<path class="ColorScheme-Text" fill="currentColor" d="M0 0 C39.6 0 79.2 0 120 0 C111.7011958 13.83134034 99.06763837 23.43152495 84 29 C83.17242187 29.31839844 82.34484375 29.63679688 81.4921875 29.96484375 C63.33526403 35.70836036 42.02998344 32.92115706 25.3125 24.4375 C15.32017651 19.02239738 6.88915517 10.99417481 0 2 C0 1.34 0 0.68 0 0 Z " transform="translate(12,176)"/>
<path class="ColorScheme-Text" fill="currentColor" d="M0 0 C1.65 1.65 3.3 3.3 5 5 C-24.7 5 -54.4 5 -85 5 C-62.69701868 -17.30298132 -25.46876975 -15.64556609 0 0 Z " transform="translate(112,75)"/>
<path class="ColorScheme-Text" fill="currentColor" d="M0 0 C15.84 0 31.68 0 48 0 C48 5.28 48 10.56 48 16 C32.16 16 16.32 16 0 16 C0 10.72 0 5.44 0 0 Z " transform="translate(192,176)"/>
</svg>
