<?xml version="1.0" encoding="UTF-8"?>
<svg version="1.1" xmlns="http://www.w3.org/2000/svg" width="256" height="256" viewBox="0 0 256 256">
<defs>
<style id="current-color-scheme" type="text/css">.ColorScheme-Text { color:#bebebe; }</style>
</defs>
<path class="ColorScheme-Text" fill="currentColor" d="M0 0 C10.58327551 8.6328929 19.18160477 18.96586424 24.30664062 31.72021484 C24.30664062 32.71021484 24.30664062 33.70021484 24.30664062 34.72021484 C62.58664063 34.72021484 100.86664063 34.72021484 140.30664062 34.72021484 C140.30664062 50.56021484 140.30664062 66.40021484 140.30664062 82.72021484 C135.02664062 82.72021484 129.74664062 82.72021484 124.30664062 82.72021484 C124.30664062 93.28021484 124.30664062 103.84021484 124.30664062 114.72021484 C108.46664062 114.72021484 92.62664062 114.72021484 76.30664062 114.72021484 C76.30664062 104.16021484 76.30664062 93.60021484 76.30664062 82.72021484 C59.14664063 82.72021484 41.98664063 82.72021484 24.30664062 82.72021484 C23.97664062 84.37021484 23.64664063 86.02021484 23.30664062 87.72021484 C15.77383728 105.36782017 1.5676128 118.7898971 -16.00195312 126.24365234 C-33.64915407 133.30253272 -54.98828962 133.3677988 -72.57714844 125.92285156 C-93.09878613 116.77970134 -105.68912777 100.42949547 -113.79492188 79.93505859 C-119.46774986 61.93575859 -116.52810329 40.57172543 -108.13085938 24.03271484 C-98.31204028 5.98870699 -81.63429724 -6.10979517 -62.25585938 -12.21728516 C-40.94019993 -16.83856634 -17.54585144 -13.26057573 0 0 Z M-62.38085938 43.79443359 C-66.78732725 50.56687427 -67.42353752 56.72882065 -66.69335938 64.72021484 C-64.64627978 71.52897958 -60.20157897 76.42547567 -54.13085938 80.03271484 C-48.23752947 82.76213985 -41.50243553 82.89368641 -35.32226562 80.98974609 C-28.95823286 78.04232071 -24.37125351 73.45534135 -21.42382812 67.09130859 C-19.51988781 60.91113869 -19.65143437 54.17604475 -22.38085938 48.28271484 C-25.68588014 42.7011588 -30.41803159 37.75807902 -36.69335938 35.72021484 C-46.80831796 34.28049446 -55.66837263 35.54366864 -62.38085938 43.79443359 Z " transform="translate(115.693359375,77.27978515625)"/>
</svg>
