<?xml version="1.0" encoding="UTF-8"?>
<svg version="1.1" xmlns="http://www.w3.org/2000/svg" width="256" height="256" viewBox="0 0 256 256">
<defs>
<style id="current-color-scheme" type="text/css">.ColorScheme-Text { color:#bebebe; }</style>
</defs>
<path class="ColorScheme-Text" fill="currentColor" d="M0 0 C10.12833827 8.66959233 20.0049148 19.77457402 22.6875 33.1875 C60.9675 33.1875 99.2475 33.1875 138.6875 33.1875 C138.6875 49.0275 138.6875 64.8675 138.6875 81.1875 C133.4075 81.1875 128.1275 81.1875 122.6875 81.1875 C122.6875 86.4675 122.6875 91.7475 122.6875 97.1875 C106.8475 97.1875 91.0075 97.1875 74.6875 97.1875 C74.6875 91.9075 74.6875 86.6275 74.6875 81.1875 C57.5275 81.1875 40.3675 81.1875 22.6875 81.1875 C21.6975 84.1575 20.7075 87.1275 19.6875 90.1875 C10.11370368 108.81423843 -5.17198764 119.80373495 -24.09765625 127.2890625 C-42.09695625 132.96189048 -63.46098941 130.02224392 -80 121.625 C-98.04400786 111.80618091 -110.14251001 95.12843786 -116.25 75.75 C-120.63164019 55.53968463 -117.44218046 34.43848961 -106.51025391 16.95117188 C-95.96144387 1.41823186 -79.43575827 -10.37181639 -60.99609375 -14.375 C-38.67891838 -17.02560832 -18.22297975 -13.94184695 0 0 Z M-64.2578125 42.3203125 C-69.07289935 49.1062256 -69.66711917 56.09689784 -68.3125 64.1875 C-65.92565938 71.07048226 -61.64521655 75.79224278 -55.21875 79.1796875 C-48.63888786 81.46141389 -41.98611214 81.46141389 -35.40625 79.1796875 C-28.97978345 75.79224278 -24.69934062 71.07048226 -22.3125 64.1875 C-20.95788083 56.09689784 -21.55210065 49.1062256 -26.3671875 42.3203125 C-31.82639049 36.33492128 -37.20579441 33.84283528 -45.3125 33.4375 C-53.41920559 33.84283528 -58.79860951 36.33492128 -64.2578125 42.3203125 Z " transform="translate(117.3125,62.8125)"/>
<path class="ColorScheme-Text" fill="currentColor" d="M0 0 C3.56234428 -0.08741124 7.12441108 -0.14052896 10.6875 -0.1875 C11.69490234 -0.21263672 12.70230469 -0.23777344 13.74023438 -0.26367188 C21.1931332 -0.33746295 24.72013012 0.77029337 30.11328125 5.91796875 C31.18487569 7.00271159 32.25120571 8.09267758 33.3125 9.1875 C33.86228516 9.74630859 34.41207031 10.30511719 34.97851562 10.88085938 C36.32363696 12.24937412 37.66246643 13.62406833 39 15 C43.29145581 13.35580368 45.96263506 10.18950555 49.0625 6.9375 C55.56606271 0.11707674 55.56606271 0.11707674 60.36010742 -0.11352539 C61.26607666 -0.10828857 62.1720459 -0.10305176 63.10546875 -0.09765625 C64.08837891 -0.09443359 65.07128906 -0.09121094 66.08398438 -0.08789062 C67.62022461 -0.07532227 67.62022461 -0.07532227 69.1875 -0.0625 C70.22326172 -0.05798828 71.25902344 -0.05347656 72.32617188 -0.04882812 C74.88417266 -0.0370401 77.44205733 -0.02058515 80 0 C80.08741124 3.56234428 80.14052896 7.12441108 80.1875 10.6875 C80.21263672 11.69490234 80.23777344 12.70230469 80.26367188 13.74023438 C80.33746295 21.1931332 79.22970663 24.72013012 74.08203125 30.11328125 C72.99728841 31.18487569 71.90732242 32.25120571 70.8125 33.3125 C70.25369141 33.86228516 69.69488281 34.41207031 69.11914062 34.97851562 C67.75062588 36.32363696 66.37593167 37.66246643 65 39 C66.58863798 43.00941965 69.43459798 45.59301669 72.5 48.5 C79.75995133 55.38476004 79.75995133 55.38476004 80.22705078 60.47363281 C80.21657715 61.37436523 80.20610352 62.27509766 80.1953125 63.203125 C80.18886719 64.1828125 80.18242187 65.1625 80.17578125 66.171875 C80.15064453 67.69554687 80.15064453 67.69554687 80.125 69.25 C80.11597656 70.28125 80.10695313 71.3125 80.09765625 72.375 C80.07412011 74.91690287 80.04124023 77.4583328 80 80 C76.43765572 80.08741124 72.87558892 80.14052896 69.3125 80.1875 C68.30509766 80.21263672 67.29769531 80.23777344 66.25976562 80.26367188 C58.8068668 80.33746295 55.27986988 79.22970663 49.88671875 74.08203125 C48.81512431 72.99728841 47.74879429 71.90732242 46.6875 70.8125 C46.13771484 70.25369141 45.58792969 69.69488281 45.02148438 69.11914062 C43.67636304 67.75062588 42.33753357 66.37593167 41 65 C36.70854419 66.64419632 34.03736494 69.81049445 30.9375 73.0625 C24.43393729 79.88292326 24.43393729 79.88292326 19.63989258 80.11352539 C18.73392334 80.10828857 17.8279541 80.10305176 16.89453125 80.09765625 C15.91162109 80.09443359 14.92871094 80.09121094 13.91601562 80.08789062 C12.89185547 80.07951172 11.86769531 80.07113281 10.8125 80.0625 C9.77673828 80.05798828 8.74097656 80.05347656 7.67382812 80.04882812 C5.11582734 80.0370401 2.55794267 80.02058515 0 80 C-0.11681812 76.45861382 -0.187455 72.9177276 -0.25 69.375 C-0.28351563 68.37597656 -0.31703125 67.37695312 -0.3515625 66.34765625 C-0.45580371 58.47744507 1.39470002 54.68725751 6.796875 49.0078125 C7.77610816 48.04163579 8.76053907 47.08069979 9.75 46.125 C10.25660156 45.62742188 10.76320312 45.12984375 11.28515625 44.6171875 C12.51885307 43.40676798 13.75877784 42.20270147 15 41 C13.35580368 36.70854419 10.18950555 34.03736494 6.9375 30.9375 C0.11707674 24.43393729 0.11707674 24.43393729 -0.11352539 19.63989258 C-0.10828857 18.73392334 -0.10305176 17.8279541 -0.09765625 16.89453125 C-0.09443359 15.91162109 -0.09121094 14.92871094 -0.08789062 13.91601562 C-0.07951172 12.89185547 -0.07113281 11.86769531 -0.0625 10.8125 C-0.05798828 9.77673828 -0.05347656 8.74097656 -0.04882812 7.67382812 C-0.0370401 5.11582734 -0.02058515 2.55794267 0 0 Z " transform="translate(176,176)"/>
</svg>
